<svg width="300" height="300" viewBox="0 0 300 300" fill="none" xmlns="http://www.w3.org/2000/svg">
<mask id="mask0_51_16" style="mask-type:alpha" maskUnits="userSpaceOnUse" x="0" y="0" width="300" height="300">
<rect width="300" height="300" fill="#D9D9D9"/>
</mask>
<g mask="url(#mask0_51_16)">
<rect x="-19" y="-21" width="340" height="239" fill="black"/>
<path fill-rule="evenodd" clip-rule="evenodd" d="M-478.941 79.3003L-468.525 95.3071C-460.193 108.113 -441.445 136.925 -415.677 134.52C-389.909 132.116 -357.122 98.4951 -322.836 70.6768C-290.633 39.6572 -259.601 13.8403 -233.833 11.4359C-208.065 9.03157 -187.562 30.0397 -168.229 56.2506C-148.311 79.8601 -129.563 108.672 -112.57 145.289C-95.5764 181.905 -77.67 226.926 -49.5623 214.116C-20.8696 198.705 20.6925 126.063 52.3101 97.6445C84.5127 66.6249 106.771 79.8289 125.519 108.641C144.267 137.453 159.505 181.874 180.593 200.281C204.934 216.686 232.457 206.478 259.98 196.269C287.502 186.06 315.025 175.852 327.453 170.448L342.548 165.643L300.43 352.943L287.089 349.943C276.417 347.544 252.404 342.144 228.391 336.744C204.378 331.344 180.365 325.944 153.684 319.945C129.671 314.545 105.658 309.145 81.6456 303.745C57.6327 298.345 33.6198 292.946 9.60691 287.546C-14.406 282.146 -38.4189 276.746 -62.4318 271.346C-86.4447 265.947 -113.126 259.947 -137.139 254.547C-161.151 249.147 -185.164 243.747 -209.177 238.348C-233.19 232.948 -257.203 227.548 -281.216 222.148C-305.229 216.749 -329.242 211.349 -353.255 205.949C-379.936 199.949 -403.948 194.549 -427.961 189.15C-451.974 183.75 -475.987 178.35 -486.66 175.95L-500 172.95L-478.941 79.3003Z" fill="#16BC51"/>
<rect x="-16" y="264" width="104" height="56" fill="#16BC51"/>
</g>
<rect x="37.6931" y="129.016" width="55.0508" height="42.4215" fill="black"/>
<mask id="mask1_51_16" style="mask-type:alpha" maskUnits="userSpaceOnUse" x="29" y="114" width="242" height="73">
<path fill-rule="evenodd" clip-rule="evenodd" d="M267.033 149.457C266.514 149.458 266.001 149.357 265.521 149.159C265.042 148.961 264.606 148.671 264.24 148.304C263.873 147.937 263.583 147.502 263.385 147.022C263.188 146.543 263.087 146.029 263.089 145.511C263.089 143.345 264.836 141.541 267.056 141.541C267.575 141.54 268.089 141.641 268.568 141.839C269.048 142.037 269.483 142.327 269.85 142.694C270.216 143.061 270.507 143.496 270.704 143.976C270.901 144.455 271.002 144.969 271 145.487C271 146.539 270.582 147.548 269.838 148.293C269.095 149.037 268.086 149.456 267.033 149.457M267.056 141.934C266.586 141.931 266.121 142.021 265.686 142.2C265.252 142.378 264.858 142.642 264.527 142.975C264.195 143.308 263.934 143.704 263.758 144.14C263.582 144.575 263.495 145.041 263.502 145.511C263.502 147.476 265.021 149.06 267.033 149.06C267.502 149.063 267.968 148.972 268.401 148.794C268.835 148.615 269.229 148.352 269.56 148.019C269.891 147.687 270.152 147.291 270.329 146.857C270.505 146.422 270.593 145.956 270.587 145.487C270.595 145.021 270.508 144.557 270.334 144.125C270.159 143.692 269.9 143.298 269.571 142.967C269.242 142.636 268.85 142.374 268.418 142.197C267.986 142.019 267.523 141.93 267.056 141.934M267.927 145.892L269.045 147.457H268.105L267.102 146.023H266.235V147.457H265.449V143.314H267.299C268.259 143.314 268.891 143.807 268.891 144.636C268.891 145.314 268.498 145.73 267.927 145.892M267.264 144.023H266.235V145.333H267.264C267.777 145.333 268.082 145.083 268.082 144.678C268.082 144.254 267.773 144.023 267.264 144.023ZM217.904 130.459C216.837 130.458 215.814 130.881 215.06 131.634C214.306 132.388 213.881 133.41 213.881 134.476C213.88 135.542 214.304 136.564 215.057 137.318C215.811 138.073 216.833 138.497 217.9 138.497C218.967 138.497 219.99 138.073 220.744 137.319C221.499 136.565 221.923 135.542 221.923 134.476C221.923 133.409 221.499 132.387 220.744 131.632C219.99 130.878 218.967 130.455 217.9 130.455M220.676 141.591H215.07C214.961 141.592 214.858 141.636 214.781 141.714C214.704 141.791 214.662 141.895 214.662 142.004V166.458C214.662 166.69 214.843 166.871 215.07 166.871H220.679C220.789 166.871 220.894 166.827 220.971 166.75C221.048 166.673 221.092 166.568 221.092 166.458V142.004C221.092 141.894 221.048 141.79 220.971 141.712C220.894 141.635 220.789 141.591 220.679 141.591M233.143 141.615V140.844C233.143 138.563 234.018 137.545 235.98 137.545C237.148 137.545 238.085 137.776 239.141 138.131C239.203 138.152 239.27 138.158 239.334 138.148C239.399 138.138 239.46 138.113 239.513 138.074C239.566 138.036 239.609 137.985 239.638 137.927C239.667 137.868 239.682 137.803 239.681 137.738V133.017C239.681 132.929 239.652 132.843 239.599 132.773C239.547 132.702 239.473 132.65 239.388 132.624C237.877 132.163 236.304 131.937 234.723 131.954C229.546 131.954 226.809 134.871 226.809 140.385V141.572H224.114C224.006 141.572 223.901 141.615 223.824 141.692C223.747 141.768 223.703 141.872 223.702 141.981V146.825C223.702 147.052 223.887 147.237 224.114 147.237H226.809V166.466C226.809 166.69 226.99 166.875 227.218 166.875H232.827C232.936 166.874 233.039 166.83 233.116 166.753C233.193 166.675 233.235 166.571 233.235 166.462V147.233H238.471L246.493 166.462C245.583 168.478 244.689 168.882 243.467 168.882C242.476 168.882 241.435 168.586 240.371 168.004C240.322 167.977 240.268 167.961 240.212 167.956C240.157 167.95 240.101 167.956 240.047 167.973C239.994 167.991 239.944 168.021 239.902 168.059C239.861 168.098 239.827 168.144 239.805 168.196L237.904 172.362C237.86 172.456 237.853 172.564 237.885 172.662C237.918 172.761 237.986 172.844 238.077 172.894C240.063 173.969 241.855 174.428 244.068 174.428C248.209 174.428 250.499 172.501 252.515 167.31L262.245 142.177C262.27 142.115 262.28 142.047 262.273 141.98C262.266 141.914 262.243 141.849 262.205 141.794C262.167 141.738 262.116 141.693 262.057 141.661C261.997 141.63 261.931 141.614 261.863 141.615H256.027C255.942 141.615 255.859 141.643 255.79 141.692C255.721 141.742 255.669 141.812 255.641 141.892L249.658 158.967L243.104 141.88C243.075 141.803 243.023 141.735 242.955 141.688C242.887 141.64 242.806 141.615 242.723 141.615H233.143M211.643 141.591H205.475V135.283C205.475 135.229 205.464 135.176 205.443 135.126C205.423 135.076 205.392 135.031 205.354 134.993C205.315 134.955 205.27 134.925 205.22 134.905C205.17 134.884 205.116 134.874 205.062 134.875H199.453C199.345 134.876 199.242 134.919 199.165 134.995C199.089 135.072 199.046 135.175 199.045 135.283V141.591H196.346C196.292 141.591 196.239 141.602 196.189 141.623C196.139 141.644 196.094 141.674 196.056 141.712C196.018 141.751 195.988 141.796 195.967 141.846C195.947 141.896 195.937 141.95 195.937 142.004V146.821C195.937 147.048 196.122 147.233 196.346 147.233H199.045V159.695C199.045 164.736 201.55 167.287 206.5 167.287C208.513 167.287 210.178 166.875 211.751 165.984C211.814 165.949 211.867 165.897 211.904 165.834C211.94 165.771 211.96 165.699 211.959 165.626V161.04C211.96 160.97 211.943 160.901 211.909 160.839C211.876 160.777 211.826 160.725 211.767 160.688C211.707 160.651 211.639 160.63 211.568 160.627C211.498 160.623 211.428 160.639 211.365 160.67C210.286 161.214 209.241 161.464 208.073 161.464C206.273 161.464 205.471 160.651 205.471 158.821V147.233H211.639C211.693 147.234 211.747 147.223 211.798 147.203C211.848 147.182 211.894 147.152 211.932 147.113C211.97 147.075 212.001 147.029 212.021 146.979C212.042 146.929 212.052 146.875 212.052 146.821V142.004C212.052 141.95 212.042 141.896 212.022 141.846C212.001 141.796 211.971 141.751 211.933 141.712C211.895 141.674 211.85 141.644 211.8 141.623C211.75 141.602 211.697 141.591 211.643 141.591M182.071 141.079C174.515 141.079 168.589 146.898 168.589 154.324C168.589 161.672 174.472 167.426 181.978 167.426C189.561 167.426 195.502 161.63 195.502 154.231C195.502 146.855 189.603 141.079 182.071 141.079ZM182.071 161.742C178.05 161.742 175.016 158.512 175.016 154.227C175.016 149.931 177.946 146.813 181.978 146.813C186.026 146.813 189.071 150.042 189.071 154.327C189.071 158.624 186.13 161.742 182.071 161.742ZM155.031 141.079C151.87 141.079 149.279 142.324 147.143 144.871V142.004C147.143 141.895 147.1 141.791 147.024 141.714C146.947 141.636 146.843 141.592 146.735 141.591H141.126C141.017 141.592 140.913 141.636 140.836 141.714C140.76 141.791 140.717 141.895 140.717 142.004V173.873C140.717 174.096 140.902 174.281 141.126 174.281H146.735C146.843 174.28 146.946 174.237 147.023 174.16C147.099 174.084 147.142 173.981 147.143 173.873V163.815C149.283 166.208 151.874 167.379 155.031 167.379C160.898 167.379 166.839 162.863 166.839 154.231C166.839 145.599 160.902 141.079 155.031 141.079ZM160.32 154.231C160.32 158.624 157.61 161.695 153.732 161.695C149.896 161.695 147.005 158.485 147.005 154.231C147.005 149.977 149.896 146.767 153.732 146.767C157.548 146.767 160.324 149.904 160.324 154.231M127.798 147.256C121.538 145.761 120.424 144.713 120.424 142.512C120.424 140.432 122.382 139.033 125.297 139.033C128.118 139.033 130.921 140.092 133.855 142.281C133.899 142.314 133.948 142.337 134.001 142.35C134.054 142.363 134.109 142.365 134.162 142.357C134.216 142.349 134.268 142.33 134.314 142.302C134.361 142.274 134.401 142.237 134.433 142.193L137.494 137.88C137.553 137.795 137.579 137.691 137.564 137.588C137.55 137.485 137.497 137.391 137.417 137.326C133.924 134.52 129.988 133.16 125.389 133.16C118.623 133.16 113.901 137.214 113.901 143.021C113.901 149.245 117.976 151.449 125.019 153.148C131.01 154.528 132.024 155.684 132.024 157.753C132.024 160.042 129.98 161.464 126.684 161.464C123.03 161.464 120.05 160.231 116.711 157.349C116.628 157.278 116.52 157.242 116.411 157.248C116.356 157.253 116.303 157.268 116.255 157.293C116.206 157.318 116.164 157.353 116.129 157.395L112.698 161.472C112.628 161.553 112.593 161.659 112.601 161.766C112.609 161.873 112.659 161.972 112.74 162.042C116.521 165.466 121.445 167.353 126.546 167.333C133.832 167.333 138.543 163.353 138.543 157.195C138.543 151.988 135.432 149.11 127.798 147.252M65.2765 114C55.6554 114 46.4283 117.82 39.6251 124.621C32.822 131.421 29 140.645 29 150.262C29 159.879 32.822 169.103 39.6251 175.903C46.4283 182.703 55.6554 186.524 65.2765 186.524C74.8976 186.524 84.1247 182.703 90.9278 175.903C97.731 169.103 101.553 159.879 101.553 150.262C101.553 140.645 97.731 131.421 90.9278 124.621C84.1247 117.82 74.8976 114 65.2765 114M81.9151 166.3C81.7606 166.554 81.5574 166.775 81.3172 166.951C81.0771 167.126 80.8047 167.252 80.5156 167.322C80.2266 167.392 79.9266 167.404 79.6329 167.357C79.3392 167.311 79.0575 167.207 78.804 167.052C70.2843 161.85 59.5671 160.674 46.9378 163.557C46.6484 163.623 46.3489 163.631 46.0564 163.582C45.7638 163.532 45.4838 163.425 45.2325 163.267C44.9812 163.109 44.7635 162.904 44.5917 162.662C44.42 162.42 44.2976 162.147 44.2315 161.857C44.1654 161.568 44.157 161.269 44.2067 160.976C44.2564 160.684 44.3632 160.404 44.5211 160.153C44.6789 159.902 44.8847 159.684 45.1268 159.512C45.3688 159.341 45.6423 159.218 45.9316 159.152C59.7483 155.992 71.6027 157.353 81.1633 163.195C82.2274 163.846 82.5627 165.237 81.9151 166.3ZM86.3485 156.428C85.9562 157.066 85.3268 157.522 84.5983 157.697C83.8699 157.872 83.1018 157.751 82.4625 157.36C72.713 151.368 57.8477 149.634 46.3132 153.133C45.6115 153.299 44.8726 153.192 44.2473 152.833C43.6219 152.473 43.1572 151.889 42.9478 151.199C42.7384 150.509 42.8 149.766 43.1202 149.12C43.4404 148.474 43.995 147.974 44.671 147.722C57.8477 143.726 74.2242 145.665 85.4194 152.539C85.7364 152.734 86.0121 152.988 86.2306 153.289C86.4491 153.59 86.6062 153.931 86.6929 154.292C86.7795 154.654 86.794 155.029 86.7356 155.396C86.6771 155.763 86.5469 156.115 86.3523 156.432M86.7378 146.146C75.0414 139.206 55.7505 138.566 44.59 141.958C44.1617 142.094 43.7106 142.144 43.2627 142.105C42.8149 142.066 42.3793 141.938 41.9813 141.729C41.5833 141.52 41.2309 141.234 40.9444 140.888C40.658 140.541 40.4432 140.142 40.3127 139.712C40.1821 139.281 40.1384 138.83 40.184 138.383C40.2296 137.936 40.3637 137.502 40.5784 137.107C40.7931 136.713 41.0841 136.364 41.4346 136.083C41.7851 135.802 42.1881 135.593 42.6201 135.468C55.4306 131.576 76.7338 132.331 90.192 140.316C90.966 140.775 91.5259 141.522 91.7486 142.394C91.9712 143.265 91.8384 144.19 91.3794 144.963C90.9203 145.737 90.1725 146.297 89.3006 146.519C88.4287 146.742 87.5041 146.609 86.7301 146.15" fill="#1ED760"/>
</mask>
<g mask="url(#mask1_51_16)">
<rect x="106.021" y="95.9856" width="209.841" height="107.835" fill="white"/>
<rect x="13.0823" y="100.843" width="94.8817" height="89.0528" fill="#1ED760"/>
</g>
</svg>
