<svg width="300" height="300" viewBox="0 0 300 300" fill="none" xmlns="http://www.w3.org/2000/svg">
<mask id="mask0_51_17" style="mask-type:alpha" maskUnits="userSpaceOnUse" x="0" y="0" width="300" height="300">
<rect width="300" height="300" fill="#D9D9D9"/>
</mask>
<g mask="url(#mask0_51_17)">
<rect x="-19" y="-21" width="340" height="252" fill="black"/>
<path fill-rule="evenodd" clip-rule="evenodd" d="M-111.414 62.3031L-93.9565 65.6776C-76.4994 69.052 -41.0718 75.9001 -9.09583 97.8496C22.6965 120.749 52.2476 157.999 82.5708 188.498C113.407 219.098 145.383 241.047 185.623 220.245C226.193 200.492 274.696 136.937 298.948 105.16L323.2 73.383L278.024 307.093L260.567 303.719C243.11 300.345 208.196 293.596 172.768 286.748C137.854 279.999 102.94 273.25 67.5122 266.402C32.598 259.653 -2.82961 252.805 -37.7438 246.056C-72.658 239.307 -108.086 232.459 -125.543 229.085L-143 225.71L-111.414 62.3031Z" fill="#F84615"/>
<rect x="260" y="177" width="40" height="65" fill="#F84615"/>
<rect y="235" width="300" height="65" fill="#F84615"/>
</g>
<path d="M90 116.323L100.11 139.269L110.219 116.323H90ZM100.11 154.328C103.601 154.328 106.438 151.5 106.438 148.025C106.438 144.532 103.601 141.716 100.11 141.716C96.609 141.716 93.78 144.532 93.78 148.025C93.78 151.5 96.609 154.328 100.11 154.328V154.328ZM94.642 171.133C94.642 175.919 98.952 183.678 111.213 183.678C123.477 183.678 127.79 177.742 127.79 171.133V116.323H116.846L116.852 173.037C116.852 176.135 114.333 178.733 111.221 178.733C108.106 178.733 105.582 176.21 105.582 173.113L105.574 161.559H94.642V171.133ZM136.084 182.692V116.323H157.957C162.178 116.323 168.892 119.788 168.892 127.137V138.442C168.892 141.748 165.993 147.606 161.686 147.606C165.993 147.606 168.892 151.317 168.892 154.129V174.023C168.892 177.406 166.161 182.692 157.957 182.692H136.084ZM152.986 144.897C156.963 144.897 157.958 144.227 157.958 133.824C157.958 123.423 156.963 122.594 152.986 122.594H147.011V144.881L152.986 144.897ZM157.958 163.951C157.958 153.545 157.957 150.498 153.639 150.498H147.011V177.239L153.639 177.253C157.957 177.253 157.957 174.349 157.957 163.951H157.958ZM176.853 182.692H210V161.559H199.057L199.065 173.112C199.065 176.21 196.541 178.733 193.428 178.733C190.318 178.733 187.792 176.21 187.792 173.113V116.322H176.852L176.853 182.692Z" fill="white"/>
</svg>
