<svg width="750" height="238" viewBox="0 0 750 238" fill="none" xmlns="http://www.w3.org/2000/svg">
<rect x="28" y="50" width="170" height="131" fill="black"/>
<mask id="mask0_39_21" style="mask-type:alpha" maskUnits="userSpaceOnUse" x="1" y="3" width="748" height="225">
<path fill-rule="evenodd" clip-rule="evenodd" d="M736.214 113.121C734.613 113.126 733.026 112.814 731.545 112.203C730.065 111.592 728.72 110.695 727.588 109.562C726.456 108.429 725.559 107.084 724.95 105.604C724.34 104.123 724.029 102.537 724.036 100.936C724.036 94.2479 729.429 88.6787 736.286 88.6787C737.887 88.674 739.474 88.986 740.955 89.5969C742.435 90.2077 743.78 91.1053 744.912 92.238C746.044 93.3706 746.941 94.7159 747.55 96.1964C748.16 97.6769 748.471 99.2633 748.464 100.864C748.464 104.113 747.174 107.229 744.877 109.527C742.58 111.825 739.464 113.118 736.214 113.121M736.286 89.8925C734.835 89.8813 733.397 90.1598 732.055 90.7116C730.714 91.2635 729.496 92.0777 728.474 93.1063C727.451 94.135 726.645 95.3574 726.102 96.7019C725.558 98.0464 725.289 99.4858 725.309 100.936C725.309 107.005 730 111.896 736.214 111.896C737.663 111.905 739.1 111.626 740.44 111.074C741.78 110.523 742.996 109.709 744.018 108.682C745.04 107.655 745.847 106.435 746.392 105.093C746.936 103.75 747.208 102.313 747.19 100.864C747.213 99.4233 746.946 97.9925 746.407 96.6559C745.868 95.3194 745.067 94.1042 744.051 93.0818C743.035 92.0595 741.824 91.2506 740.491 90.7029C739.157 90.1552 737.727 89.8796 736.286 89.8925M738.976 102.114L742.429 106.945H739.524L736.429 102.518H733.75V106.945H731.321V94.1527H737.036C740 94.1527 741.952 95.6759 741.952 98.2344C741.952 100.329 740.738 101.614 738.976 102.114M736.929 96.3423H733.75V100.388H736.929C738.512 100.388 739.452 99.6148 739.452 98.3653C739.452 97.0563 738.5 96.3423 736.929 96.3423ZM584.5 54.4543C581.207 54.4527 578.048 55.7589 575.718 58.0854C573.389 60.4119 572.079 63.5683 572.077 66.86C572.076 70.1518 573.382 73.3094 575.71 75.6382C578.037 77.9669 581.195 79.2761 584.488 79.2777C587.783 79.2777 590.942 77.9694 593.272 75.6407C595.602 73.3119 596.911 70.1534 596.911 66.86C596.911 63.5667 595.602 60.4082 593.272 58.0794C590.942 55.7507 587.783 54.4424 584.488 54.4424M593.06 88.8334H575.75C575.414 88.8365 575.093 88.9721 574.857 89.2105C574.621 89.449 574.488 89.771 574.488 90.1067V165.624C574.488 166.338 575.048 166.897 575.75 166.897H593.071C593.409 166.897 593.733 166.763 593.972 166.524C594.211 166.286 594.345 165.962 594.345 165.624V90.1067C594.345 89.769 594.211 89.4451 593.972 89.2063C593.733 88.9675 593.409 88.8334 593.071 88.8334M631.559 88.9048V86.5248C631.559 79.48 634.262 76.3384 640.321 76.3384C643.929 76.3384 646.821 77.0524 650.083 78.1472C650.275 78.212 650.479 78.2299 650.679 78.1994C650.878 78.169 651.068 78.091 651.231 77.972C651.395 77.853 651.527 77.6966 651.617 77.5159C651.707 77.3351 651.753 77.1354 651.75 76.9334V62.3559C651.749 62.0834 651.66 61.8185 651.498 61.6C651.335 61.3815 651.106 61.221 650.845 61.1421C646.178 59.7169 641.32 59.0185 636.44 59.0715C620.452 59.0715 612 68.0798 612 85.1087V88.7739H603.679C603.343 88.7739 603.021 88.9064 602.782 89.1426C602.543 89.3788 602.408 89.6997 602.405 90.0353V104.994C602.405 105.696 602.976 106.267 603.679 106.267H612V165.648C612 166.338 612.559 166.909 613.262 166.909H630.583C630.919 166.906 631.24 166.771 631.476 166.532C631.713 166.294 631.845 165.972 631.845 165.636V106.255H648.012L672.786 165.636C669.976 171.86 667.214 173.109 663.44 173.109C660.381 173.109 657.167 172.193 653.881 170.396C653.729 170.314 653.562 170.264 653.39 170.248C653.219 170.231 653.046 170.249 652.881 170.301C652.715 170.357 652.562 170.448 652.433 170.567C652.304 170.686 652.201 170.83 652.131 170.991L646.262 183.855C646.125 184.145 646.105 184.477 646.204 184.782C646.304 185.087 646.516 185.343 646.798 185.497C652.929 188.817 658.464 190.233 665.298 190.233C678.083 190.233 685.155 184.283 691.381 168.254L721.429 90.6422C721.507 90.4499 721.537 90.2412 721.515 90.0346C721.493 89.8281 721.421 89.6301 721.304 89.4582C721.188 89.2863 721.031 89.1459 720.847 89.0494C720.663 88.9528 720.458 88.9032 720.25 88.9048H702.226C701.964 88.9075 701.708 88.9913 701.495 89.1447C701.282 89.2981 701.122 89.5135 701.036 89.7616L682.559 142.49L662.321 89.7259C662.232 89.4855 662.071 89.278 661.86 89.1313C661.65 88.9846 661.399 88.9056 661.143 88.9048H631.559M565.167 88.8334H546.119V69.3531C546.119 69.1864 546.086 69.0214 546.022 68.8676C545.958 68.7138 545.864 68.5742 545.745 68.4569C545.627 68.3396 545.486 68.247 545.332 68.1843C545.177 68.1216 545.012 68.0901 544.845 68.0917H527.524C527.19 68.0948 526.871 68.2287 526.635 68.4646C526.399 68.7005 526.265 69.0195 526.262 69.3531V88.8334H517.929C517.762 88.8334 517.597 88.8664 517.443 88.9305C517.289 88.9947 517.149 89.0887 517.032 89.207C516.915 89.3254 516.822 89.4659 516.759 89.6203C516.697 89.7747 516.665 89.94 516.667 90.1067V104.982C516.667 105.684 517.238 106.255 517.929 106.255H526.262V144.74C526.262 160.305 534 168.183 549.286 168.183C555.5 168.183 560.643 166.909 565.5 164.16C565.696 164.05 565.859 163.889 565.972 163.695C566.085 163.5 566.144 163.279 566.143 163.054V148.893C566.146 148.676 566.093 148.461 565.989 148.271C565.885 148.08 565.733 147.919 565.549 147.804C565.364 147.69 565.153 147.624 564.936 147.615C564.719 147.605 564.503 147.652 564.309 147.75C560.976 149.428 557.75 150.202 554.143 150.202C548.583 150.202 546.107 147.691 546.107 142.038V106.255H565.155C565.322 106.257 565.489 106.225 565.644 106.161C565.799 106.098 565.94 106.004 566.059 105.886C566.178 105.767 566.271 105.626 566.335 105.471C566.398 105.316 566.43 105.149 566.429 104.982V90.1067C566.43 89.94 566.399 89.7747 566.336 89.6203C566.273 89.4659 566.18 89.3254 566.063 89.207C565.946 89.0887 565.806 88.9947 565.652 88.9305C565.498 88.8664 565.333 88.8334 565.167 88.8334M473.845 87.2507C450.512 87.2507 432.214 105.22 432.214 128.151C432.214 150.844 450.381 168.611 473.559 168.611C496.976 168.611 515.321 150.713 515.321 127.865C515.321 105.089 497.107 87.2507 473.845 87.2507ZM473.845 151.058C461.429 151.058 452.059 141.086 452.059 127.853C452.059 114.585 461.107 104.958 473.559 104.958C486.059 104.958 495.464 114.93 495.464 128.163C495.464 141.431 486.381 151.058 473.845 151.058ZM390.345 87.2507C380.583 87.2507 372.583 91.0944 365.988 98.9603V90.1067C365.988 89.771 365.856 89.449 365.619 89.2105C365.383 88.9721 365.062 88.8365 364.726 88.8334H347.405C347.069 88.8365 346.748 88.9721 346.512 89.2105C346.275 89.449 346.143 89.771 346.143 90.1067V188.52C346.143 189.21 346.714 189.781 347.405 189.781H364.726C365.06 189.778 365.379 189.644 365.615 189.408C365.851 189.172 365.985 188.853 365.988 188.52V157.461C372.595 164.851 380.595 168.468 390.345 168.468C408.464 168.468 426.81 154.521 426.81 127.865C426.81 101.209 408.476 87.2507 390.345 87.2507ZM406.679 127.865C406.679 141.431 398.309 150.916 386.333 150.916C374.488 150.916 365.56 141.003 365.56 127.865C365.56 114.728 374.488 104.815 386.333 104.815C398.119 104.815 406.69 114.502 406.69 127.865M306.25 106.326C286.917 101.709 283.476 98.4724 283.476 91.6775C283.476 85.2515 289.524 80.9318 298.524 80.9318C307.238 80.9318 315.893 84.2043 324.952 90.9635C325.087 91.0632 325.241 91.1352 325.404 91.1754C325.567 91.2157 325.736 91.2233 325.902 91.1978C326.068 91.1724 326.227 91.1144 326.371 91.0272C326.514 90.94 326.639 90.8254 326.738 90.6898L336.19 77.3737C336.374 77.1106 336.451 76.788 336.407 76.4703C336.363 76.1526 336.201 75.8632 335.952 75.6601C325.167 66.9969 313.012 62.7962 298.81 62.7962C277.917 62.7962 263.333 75.315 263.333 93.2483C263.333 112.467 275.917 119.274 297.667 124.521C316.167 128.782 319.298 132.352 319.298 138.742C319.298 145.811 312.988 150.202 302.81 150.202C291.524 150.202 282.321 146.394 272.012 137.492C271.754 137.273 271.421 137.162 271.083 137.183C270.915 137.196 270.752 137.243 270.603 137.321C270.453 137.398 270.321 137.505 270.214 137.635L259.619 150.225C259.403 150.476 259.295 150.803 259.32 151.133C259.344 151.463 259.499 151.77 259.75 151.987C271.423 162.559 286.629 168.386 302.381 168.325C324.881 168.325 339.429 156.033 339.429 137.016C339.429 120.94 329.821 112.05 306.25 106.314M113.179 3.62939C83.468 3.62939 54.9743 15.4271 33.9658 36.4273C12.9572 57.4274 1.15475 85.9097 1.15475 115.608C1.15475 145.307 12.9572 173.789 33.9658 194.79C54.9743 215.79 83.468 227.587 113.179 227.587C142.889 227.587 171.383 215.79 192.391 194.79C213.4 173.789 225.202 145.307 225.202 115.608C225.202 85.9097 213.4 57.4274 192.391 36.4273C171.383 15.4271 142.889 3.62939 113.179 3.62939M164.56 165.136C164.082 165.92 163.455 166.603 162.713 167.144C161.972 167.685 161.131 168.075 160.238 168.29C159.345 168.506 158.419 168.543 157.512 168.4C156.605 168.257 155.735 167.937 154.952 167.457C128.643 151.392 95.5476 147.762 56.5476 156.663C55.6541 156.867 54.7293 156.893 53.8257 156.74C52.9222 156.587 52.0578 156.257 51.2817 155.77C50.5057 155.282 49.8333 154.647 49.3029 153.9C48.7725 153.153 48.3945 152.309 48.1905 151.415C47.9864 150.522 47.9604 149.598 48.1138 148.695C48.2673 147.792 48.5971 146.927 49.0846 146.152C49.5722 145.376 50.2077 144.704 50.9551 144.174C51.7025 143.643 52.547 143.266 53.4405 143.062C96.1071 133.304 132.714 137.504 162.238 155.545C165.524 157.556 166.56 161.852 164.56 165.136ZM178.25 134.648C177.039 136.619 175.095 138.028 172.846 138.568C170.596 139.108 168.224 138.734 166.25 137.528C136.143 119.024 90.2381 113.669 54.619 124.474C52.4519 124.988 50.1703 124.656 48.2392 123.547C46.3081 122.437 44.873 120.634 44.2263 118.503C43.5796 116.373 43.7701 114.076 44.7588 112.081C45.7475 110.086 47.4602 108.543 49.5476 107.766C90.2381 95.426 140.81 101.412 175.381 122.641C176.36 123.241 177.211 124.028 177.886 124.956C178.561 125.885 179.046 126.938 179.314 128.054C179.581 129.17 179.626 130.328 179.445 131.462C179.265 132.595 178.863 133.682 178.262 134.66M179.452 102.899C143.333 81.4673 83.7619 79.4919 49.2976 89.9639C47.975 90.3856 46.5818 90.5404 45.1988 90.4192C43.8159 90.298 42.4708 89.9033 41.2418 89.2579C40.0128 88.6126 38.9244 87.7295 38.0398 86.66C37.1552 85.5905 36.4921 84.3559 36.089 83.028C35.6858 81.7001 35.5508 80.3053 35.6916 78.9248C35.8325 77.5442 36.2464 76.2054 36.9094 74.9862C37.5724 73.767 38.4712 72.6916 39.5535 71.8226C40.6359 70.9536 41.8803 70.3084 43.2143 69.9243C82.7738 57.9053 148.56 60.2377 190.119 84.8945C192.509 86.3116 194.238 88.6197 194.926 91.3111C195.613 94.0025 195.203 96.8567 193.786 99.2459C192.368 101.635 190.059 103.363 187.367 104.051C184.674 104.738 181.819 104.328 179.429 102.911" fill="#1ED760"/>
</mask>
<g mask="url(#mask0_39_21)">
<rect x="239" y="-52" width="648" height="333" fill="black"/>
<rect x="-48" y="-37" width="293" height="275" fill="#1ED760"/>
</g>
</svg>
