<svg width="168" height="169" viewBox="0 0 168 169" fill="none" xmlns="http://www.w3.org/2000/svg">
<g clip-path="url(#clip0_39_11)">
<rect x="22" y="37" width="130" height="97" fill="black"/>
<path d="M83.996 0.7771C37.747 0.7771 0.252991 38.2701 0.252991 84.5191C0.252991 130.77 37.747 168.26 83.996 168.26C130.25 168.26 167.74 130.77 167.74 84.5191C167.74 38.2731 130.25 0.7811 83.995 0.7811L83.996 0.7771V0.7771ZM122.4 121.557C120.9 124.017 117.68 124.797 115.22 123.287C95.558 111.277 70.806 108.557 41.656 115.217C38.847 115.857 36.047 114.097 35.407 111.287C34.764 108.477 36.517 105.677 39.333 105.037C71.233 97.7461 98.596 100.887 120.67 114.377C123.13 115.887 123.91 119.097 122.4 121.557V121.557ZM132.65 98.7521C130.76 101.827 126.74 102.797 123.67 100.907C101.16 87.0681 66.847 83.0611 40.222 91.1431C36.769 92.1861 33.122 90.2401 32.074 86.7931C31.034 83.3401 32.981 79.7001 36.428 78.6501C66.841 69.4221 104.65 73.8921 130.5 89.7771C133.57 91.6671 134.54 95.6871 132.65 98.7531V98.7521ZM133.53 75.0081C106.54 58.9771 62.01 57.5031 36.241 65.3241C32.103 66.5791 27.727 64.2431 26.473 60.1051C25.219 55.9651 27.553 51.5921 31.694 50.3341C61.275 41.3541 110.45 43.0891 141.524 61.5361C145.254 63.7451 146.474 68.5521 144.264 72.2691C142.064 75.9911 137.244 77.2181 133.534 75.0081H133.53Z" fill="#1ED760"/>
</g>
<defs>
<clipPath id="clip0_39_11">
<rect width="168" height="168" fill="white" transform="translate(0 0.5)"/>
</clipPath>
</defs>
</svg>
