<svg width="110" height="108" viewBox="0 0 110 108" fill="none" xmlns="http://www.w3.org/2000/svg">
<path d="M3.14363 38.6071C3.14363 38.6071 0.539691 36.7305 3.66442 34.2246L10.9446 27.716C10.9446 27.716 13.0277 25.5247 15.2302 27.4339L82.4118 78.2881V102.674C82.4118 102.674 82.3793 106.503 77.4643 106.08L3.14363 38.6071Z" fill="#2489CA"/>
<path d="M20.4599 54.3254L3.14373 70.0655C3.14373 70.0655 1.36437 71.3889 3.14373 73.7537L11.1834 81.0651C11.1834 81.0651 13.0929 83.1153 15.9139 80.7831L34.2716 66.8654L20.4599 54.3254Z" fill="#1070B3"/>
<path d="M50.8609 54.4556L82.618 30.2109L82.4119 5.95541C82.4119 5.95541 81.0557 0.66172 76.5313 3.41704L34.2716 41.8722L50.8609 54.4556Z" fill="#0877B9"/>
<path d="M77.4643 106.112C79.3088 108 81.5438 107.382 81.5438 107.382L106.292 95.1888C109.46 93.0301 109.015 90.3507 109.015 90.3507V17.5408C109.015 14.3407 105.739 13.2342 105.739 13.2342L84.2888 2.89632C79.6017 -2.40413e-05 76.5312 3.41701 76.5312 3.41701C76.5312 3.41701 80.4806 0.574906 82.4118 5.95538V102.229C82.4118 102.891 82.2708 103.542 81.9887 104.127C81.4245 105.266 80.1985 106.329 77.2582 105.885L77.4643 106.112Z" fill="#3C99D4"/>
</svg>
