<svg width="110" height="110" viewBox="0 0 110 110" fill="none" xmlns="http://www.w3.org/2000/svg">
<path d="M96.25 26.1983V27.5H68.75V0H70.0517C71.4192 0 72.7308 0.54334 73.6979 1.51014L94.7399 22.5521C95.7067 23.5192 96.2499 24.8307 96.25 26.1983ZM67.0312 34.375C64.1953 34.375 61.875 32.0547 61.875 29.2188V0H18.9062C16.0585 0 13.75 2.3085 13.75 5.15625V104.844C13.75 107.692 16.0585 110 18.9062 110H91.0938C93.9415 110 96.25 107.692 96.25 104.844V34.375H67.0312ZM40.22 86.046C40.1158 86.1571 39.9908 86.2467 39.8519 86.3095C39.7131 86.3723 39.5633 86.4072 39.411 86.4121C39.2588 86.417 39.107 86.3918 38.9644 86.3381C38.8219 86.2844 38.6913 86.2031 38.5801 86.0988L24.6441 73.0338C24.5283 72.9253 24.4361 72.7942 24.373 72.6486C24.3099 72.503 24.2774 72.346 24.2774 72.1874C24.2774 72.0287 24.3099 71.8718 24.373 71.7262C24.4361 71.5806 24.5283 71.4495 24.6441 71.341L38.5801 58.2759C38.6913 58.1717 38.8219 58.0904 38.9644 58.0367C39.107 57.9829 39.2588 57.9578 39.411 57.9627C39.5633 57.9676 39.7131 58.0025 39.8519 58.0653C39.9908 58.1281 40.1158 58.2176 40.22 58.3288L44.4265 62.8158C44.5328 62.9292 44.6152 63.0628 44.6689 63.2086C44.7225 63.3545 44.7464 63.5097 44.7389 63.6649C44.7314 63.8202 44.6929 63.9723 44.6255 64.1124C44.5581 64.2524 44.4632 64.3775 44.3465 64.4802L35.5889 72.1875L44.3465 79.8948C44.4632 79.9975 44.5581 80.1226 44.6255 80.2626C44.6929 80.4027 44.7314 80.5548 44.7389 80.7101C44.7464 80.8653 44.7225 81.0205 44.6689 81.1664C44.6152 81.3122 44.5328 81.4458 44.4265 81.5592L40.22 86.046V86.046ZM51.2405 96.8911L45.3423 95.1788C45.0469 95.0929 44.7976 94.8933 44.6493 94.6237C44.501 94.354 44.4658 94.0366 44.5515 93.7411L57.7515 48.2745C57.8374 47.979 58.037 47.7298 58.3066 47.5815C58.5762 47.4332 58.8937 47.398 59.1892 47.4837L65.0871 49.196C65.2334 49.2385 65.37 49.3094 65.4889 49.4046C65.6078 49.4999 65.7068 49.6176 65.7802 49.7511C65.8536 49.8846 65.9 50.0313 65.9168 50.1827C65.9335 50.3342 65.9203 50.4874 65.8778 50.6337L52.6778 96.1003C52.6354 96.2466 52.5646 96.3831 52.4694 96.5021C52.3742 96.6211 52.2565 96.7201 52.123 96.7935C51.9895 96.867 51.8429 96.9134 51.6914 96.9301C51.54 96.9469 51.3868 96.9336 51.2405 96.8911V96.8911ZM85.7856 73.0338L71.8496 86.0988C71.7384 86.2031 71.6078 86.2844 71.4653 86.3381C71.3227 86.3918 71.1709 86.417 71.0187 86.4121C70.8664 86.4072 70.7165 86.3723 70.5777 86.3095C70.4389 86.2467 70.3139 86.1571 70.2096 86.046L66.003 81.559C65.8967 81.4456 65.8143 81.312 65.7606 81.1661C65.7069 81.0203 65.6831 80.8651 65.6906 80.7099C65.698 80.5546 65.7366 80.4025 65.804 80.2624C65.8714 80.1223 65.9663 79.9973 66.0829 79.8946L74.8408 72.1875L66.0831 64.4802C65.9665 64.3775 65.8716 64.2524 65.8042 64.1124C65.7368 63.9723 65.6982 63.8202 65.6908 63.6649C65.6833 63.5097 65.7071 63.3545 65.7608 63.2086C65.8145 63.0628 65.8969 62.9292 66.0032 62.8158L70.2099 58.3288C70.3141 58.2176 70.4391 58.1281 70.578 58.0653C70.7168 58.0025 70.8666 57.9676 71.0189 57.9627C71.1711 57.9578 71.3229 57.9829 71.4655 58.0367C71.608 58.0904 71.7386 58.1717 71.8498 58.2759L85.7858 71.341C85.9016 71.4495 85.9938 71.5806 86.0568 71.7262C86.1199 71.8718 86.1524 72.0288 86.1524 72.1874C86.1524 72.3461 86.1198 72.5031 86.0567 72.6486C85.9936 72.7942 85.9014 72.9253 85.7856 73.0338V73.0338Z" fill="white"/>
</svg>
