<svg width="110" height="110" viewBox="0 0 110 110" fill="none" xmlns="http://www.w3.org/2000/svg">
<g clip-path="url(#clip0_26_668)">
<path d="M88.6875 46.0167C85.5708 30.2042 71.6833 18.3334 55 18.3334C41.7542 18.3334 30.25 25.85 24.5208 36.85C10.725 38.3167 0 50.0042 0 64.1667C0 79.3375 12.3292 91.6667 27.5 91.6667H87.0833C99.7333 91.6667 110 81.4 110 68.75C110 56.65 100.604 46.8417 88.6875 46.0167ZM77.9167 59.5834L56.6042 80.8959C55.6875 81.8125 54.2667 81.8125 53.35 80.8959L32.0833 59.5834H45.8333V41.25H64.1667V59.5834H77.9167Z" fill="#1DA1F2"/>
</g>
<defs>
<clipPath id="clip0_26_668">
<rect width="110" height="110" fill="white"/>
</clipPath>
</defs>
</svg>
